# xmcd
#
# Track frame offsets:
#	150
#	19914
#	36173
#	55897
#	71282
#	88819
#	103416
#	126571
#	143663
#	157335
#	170776
#	184779
#
# Disc length: 2620 seconds
#
# Revision: 1
# Processed by: cddbd v1.5.2PL0 Copyright (c) Steve Scherf et al.
# Submitted via: audiograbber 1.83.01
#
DISCID=b50a3a0c
DTITLE=Paulinho Pedra Azul - Paulinho Pedra Azul - 30 Anos
DYEAR=2011
DGENRE=M P B
TTITLE0=Jardim Da Fantasia
TTITLE1=Cantar
TTITLE2=Ave Cantadeira
TTITLE3=Valsa Do Desencanto
TTITLE4=Luz Do Amor
TTITLE5=Olha Para Mim
TTITLE6=Pequeno Samba Para Um Principe
TTITLE7=O Passeio
TTITLE8=Dois Sabias
TTITLE9=Chico. O Imortal
TTITLE10=Não Chore
TTITLE11=De Dois
EXTD=
EXTT0=
EXTT1=
EXTT2=
EXTT3=
EXTT4=
EXTT5=
EXTT6=
EXTT7=
EXTT8=
EXTT9=
EXTT10=
EXTT11=
PLAYORDER=
